<svg id="logo_1_" xmlns="http://www.w3.org/2000/svg" xmlns:xlink="http://www.w3.org/1999/xlink" viewBox="0 0 178 51"><style>.st0{fill:#0ccab4}.st1{fill:#453e45}</style><g id="Layer_2_xA0_Изображение_1_"><image width="39" height="33" id="Layer_2_xA0_Изображение" xlink:href="651837B0.png" overflow="visible"/></g><g id="Layer_3_xA0_Изображение_1_"><image width="25" height="33" id="Layer_3_xA0_Изображение" xlink:href="651837B1.png" transform="translate(47)" overflow="visible"/></g><g id="Layer_4_xA0_Изображение_1_"><image width="33" height="33" id="Layer_4_xA0_Изображение" xlink:href="651837B7.png" transform="translate(72)" overflow="visible"/></g><path class="st0" d="M129.2 21c.9.9 1.4 2.3 1.4 4v7.3h-1.7v-7.2c0-1.3-.3-2.3-.9-3s-1.5-1-2.7-1c-1.3 0-2.3.4-3.1 1.2-.8.8-1.1 1.9-1.1 3.3v6.6h-1.7V25c0-1.3-.3-2.3-.9-3s-1.5-1-2.7-1c-1.3 0-2.3.4-3.1 1.2-.8.8-1.1 1.9-1.1 3.3v6.6h-1.7V19.7h1.6V22c.4-.8 1.1-1.4 1.9-1.8.8-.4 1.7-.6 2.8-.6 1.1 0 2 .2 2.7.7s1.4 1.1 1.7 2c.5-.8 1.1-1.5 2-2 .9-.5 1.9-.7 3-.7 1.4 0 2.7.5 3.6 1.4zm15.8 5.5h-10.6c.1 1.3.6 2.4 1.5 3.2.9.8 2.1 1.2 3.5 1.2.8 0 1.5-.1 2.2-.4.7-.3 1.2-.7 1.7-1.2l1 1.1c-.6.7-1.3 1.2-2.1 1.5-.8.4-1.8.5-2.8.5-1.3 0-2.4-.3-3.4-.8s-1.8-1.3-2.3-2.3c-.6-1-.8-2.1-.8-3.3 0-1.2.3-2.3.8-3.3s1.3-1.7 2.2-2.3 2-.8 3.2-.8 2.2.3 3.1.8 1.7 1.3 2.2 2.3c.5 1 .8 2.1.8 3.3l-.2.5zm-9.1-4.3c-.8.8-1.3 1.8-1.4 3h9c-.1-1.2-.6-2.3-1.4-3-.8-.8-1.9-1.2-3.1-1.2-1.3.1-2.3.5-3.1 1.2zm22.9-7.7v17.8h-1.6v-2.5c-.5.8-1.2 1.5-2 1.9s-1.8.7-2.8.7c-1.2 0-2.3-.3-3.2-.8s-1.7-1.3-2.3-2.3c-.5-1-.8-2.1-.8-3.3 0-1.2.3-2.4.8-3.3.5-1 1.3-1.7 2.3-2.3 1-.5 2-.8 3.2-.8 1 0 1.9.2 2.8.6.8.4 1.5 1 2 1.9v-7.6h1.6zm-3.9 15.8c.7-.4 1.3-1 1.7-1.7.4-.8.6-1.6.6-2.6s-.2-1.8-.6-2.6c-.4-.8-1-1.3-1.7-1.7-.7-.4-1.5-.6-2.4-.6-.9 0-1.7.2-2.4.6-.7.4-1.3 1-1.7 1.7-.4.8-.6 1.6-.6 2.6s.2 1.8.6 2.6c.4.8 1 1.3 1.7 1.7s1.5.6 2.4.6c.9 0 1.7-.2 2.4-.6zm7.5-13.7c-.2-.2-.4-.5-.4-.9 0-.3.1-.6.4-.8.2-.2.5-.4.9-.4s.6.1.9.3c.2.2.4.5.4.8 0 .4-.1.6-.4.9-.2.2-.5.4-.9.4s-.7-.1-.9-.3zm0 3.1h1.7v12.6h-1.7V19.7zm13.5 1.1c.9.8 1.3 2 1.3 3.7v7.8h-1.6v-2c-.4.7-.9 1.2-1.7 1.5-.7.4-1.6.6-2.7.6-1.4 0-2.5-.3-3.4-1s-1.2-1.6-1.2-2.7.4-1.9 1.2-2.6 2-1 3.7-1h4v-.8c0-1.1-.3-1.9-.9-2.5-.6-.6-1.5-.9-2.7-.9-.8 0-1.6.1-2.3.4-.7.3-1.4.6-1.9 1.1l-.8-1.3c.6-.5 1.4-1 2.3-1.3.9-.3 1.8-.4 2.8-.4 1.7.2 3 .6 3.9 1.4zm-2 9.6c.7-.4 1.2-1.1 1.5-1.9v-2.1h-4c-2.2 0-3.2.8-3.2 2.3 0 .7.3 1.3.8 1.7.6.4 1.3.6 2.4.6 1 .1 1.8-.1 2.5-.6z" id="media"/><g id="The_logic_of_grows"><path class="st1" d="M77 37.1c.1.1.2.2.2.4s-.1.4-.2.5-.4.2-.6.1c-.7-.1-1.2-.1-1.5-.1h-1.5c-.3 1.3-.5 2.7-.7 4.1-.1.5-.2 1.1-.3 1.7-.1.7-.1 1.2-.2 1.6 0 .2-.1.4-.3.5-.2.1-.4.1-.6.1-.2 0-.4-.1-.6-.2-.1-.1-.2-.3-.2-.5s0-.5.1-.9.1-.8.2-1.3c.1-.4.1-.8.2-1.2.1-.6.2-1.1.3-1.7.1-.5.2-1.1.3-1.6 0-.1 0-.2.1-.4 0-.1.1-.3.1-.5-.7 0-1.3.1-1.7.2-.4.1-.7.2-.9.4-.2.2-.3.4-.3.7 0 .2.1.5.2.7v.2c0 .1-.1.3-.2.4s-.3.2-.5.2c-.1 0-.2 0-.3-.1-.1-.1-.3-.3-.4-.5-.1-.2-.1-.5-.1-.8 0-.6.2-1.1.6-1.5s1-.7 1.9-.8c.8-.2 1.9-.3 3.2-.3h1.9c.5 0 .9.1 1.3.1.2.3.3.4.5.5z"/><path class="st1" d="M81.5 43.6c.1.1.1.2.1.4 0 .3-.1.5-.2.7-.3.4-.7.7-1 1-.4.3-.8.4-1.2.4-.4 0-.7-.1-.8-.3s-.3-.5-.3-.9c0-.2.1-.6.2-1.1.1-.5.1-.8.1-1 0-.1 0-.2-.1-.2s-.2.1-.4.4c-.2.2-.4.6-.5 1-.2.4-.3.8-.4 1.3-.1.6-.5.9-1 .9-.2 0-.4-.1-.4-.2-.1-.2-.1-.4-.1-.9v-1.5c0-1.1.1-2.3.3-3.5.2-1.2.6-2.3 1-3.1.5-.8 1-1.2 1.6-1.2.3 0 .6.1.8.4.2.3.3.7.3 1.1 0 .7-.2 1.5-.6 2.3s-1.1 1.7-2.1 2.8v1.2c.2-.6.5-1.1.8-1.5.3-.4.6-.7.9-.8.3-.2.6-.3.8-.3.5 0 .7.2.7.7 0 .3-.1.8-.2 1.6-.1.6-.2 1.1-.2 1.3 0 .3.1.4.3.4.1 0 .3-.1.5-.3s.5-.5.8-.9c.1-.1.2-.2.3-.2-.2-.1-.1 0 0 0zm-4-6.3c-.2.4-.3.9-.5 1.5s-.3 1.3-.4 2.1c.5-.5.8-1.1 1.1-1.8.3-.6.4-1.2.4-1.7 0-.2 0-.4-.1-.5-.1-.1-.1-.2-.2-.2l-.3.6z"/><path class="st1" d="M85.5 43.6c.1.1.1.2.1.4 0 .3-.1.5-.2.7-.3.3-.7.6-1.1.9-.5.3-1 .4-1.6.4-.8 0-1.4-.2-1.8-.6-.4-.4-.6-1-.6-1.7 0-.5.1-1 .3-1.4s.5-.8.9-1 .8-.4 1.3-.4c.4 0 .8.1 1 .4s.4.6.4 1c0 .5-.2.9-.5 1.3s-1 .7-1.8.9c.2.3.5.5 1 .5.3 0 .7-.1 1.1-.3.4-.2.8-.5 1.1-.9.1-.1.2-.2.3-.2 0-.1 0 0 .1 0zm-3.7-1.2c-.2.3-.3.7-.3 1.1.4-.1.8-.3 1-.5.2-.2.4-.4.4-.7 0-.1 0-.3-.1-.3-.1-.1-.2-.1-.3-.1-.3 0-.5.2-.7.5zm9.7 1.2c.1.1.1.2.1.4 0 .3-.1.5-.2.7-.3.4-.7.7-1 1-.5.2-.9.3-1.4.3-.6 0-1.1-.3-1.4-.9-.3-.6-.5-1.3-.5-2.3 0-.9.1-1.9.3-3.1.2-1.1.6-2.1 1-2.9.5-.8 1-1.2 1.6-1.2.4 0 .6.2.8.5.2.3.3.8.3 1.4 0 .9-.2 1.9-.7 3-.5 1.2-1.1 2.3-2 3.4.1.3.1.5.3.6.1.1.3.2.5.2.3 0 .6-.1.8-.3l.9-.9c.1-.1.2-.2.3-.2.1.2.2.3.3.3zm-2.2-6c-.2.6-.4 1.4-.6 2.3-.2.9-.2 1.8-.3 2.6.5-.9.9-1.7 1.2-2.6.3-.9.5-1.6.5-2.4 0-.6-.1-.8-.3-.8-.1 0-.3.3-.5.9z"/><path class="st1" d="M96.2 42.7c.1.1.1.2.1.4 0 .4-.1.6-.3.6-.5.2-1 .3-1.5.3-.1.6-.4 1.1-.8 1.5-.4.4-.9.6-1.4.6-.4 0-.8-.1-1.1-.3-.3-.2-.5-.5-.7-.8-.2-.4-.2-.7-.2-1.1 0-.6.1-1.1.3-1.5s.5-.8.9-1c.4-.2.8-.4 1.2-.4.6 0 1 .2 1.3.6.3.4.5.9.6 1.4.3 0 .8-.1 1.2-.2h.2c.1-.2.2-.2.2-.1zM93 44.6c.2-.2.3-.5.3-.8-.2-.2-.4-.4-.5-.6-.1-.3-.2-.5-.2-.8V42h-.1c-.3 0-.5.1-.7.4-.2.3-.3.7-.3 1.2 0 .4.1.7.2.9.2.2.3.3.6.3.3.1.5 0 .7-.2z"/><path class="st1" d="M100.9 43.7c.1.1.1.2.1.3 0 .2 0 .3-.1.4-.1.1-.1.2-.2.3-.6.4-1.1.7-1.4.9l-.7.5c-.3 1.5-.6 2.7-1.1 3.6-.5.9-1 1.3-1.7 1.3-.4 0-.7-.1-.9-.3-.2-.2-.4-.5-.4-.9 0-.5.2-1.1.6-1.7.4-.6 1.2-1.3 2.3-2.2l.1-.4c-.1.2-.3.4-.5.5h-.6c-.5 0-.8-.2-1.1-.5s-.4-.8-.4-1.3c0-.6.1-1.1.4-1.7s.6-.9 1.1-1.3c.5-.3.9-.5 1.4-.5.2 0 .3 0 .3.1.1.1.1.2.1.3h.5c.2 0 .3 0 .4.1.1.1.1.2.1.3v.2c0 .2-.1.8-.3 1.7 0 .2-.1.4-.1.6s-.1.4-.1.7c.6-.4 1.1-.8 1.6-1.2.1-.1.2-.1.3-.1.2.1.3.2.3.3zm-4.4 5.5c.2-.4.5-1.1.7-2.1-.6.5-1 .9-1.2 1.3s-.4.7-.4 1c0 .1 0 .2.1.3 0 .1.1.1.2.1.2.1.4-.1.6-.6zm.8-4.6c.2-.2.3-.5.3-.9l.4-1.9c-.3 0-.6.1-.8.3s-.5.5-.6.9-.2.8-.2 1.2c0 .2 0 .4.1.5s.2.2.4.2c.1 0 .2-.1.4-.3z"/><path class="st1" d="M100.3 45.5c-.2-.3-.3-.8-.3-1.3 0-.3 0-.8.1-1.3s.2-1 .3-1.4c.1-.2.2-.4.3-.5.1-.1.3-.1.5-.1.4 0 .6.1.6.4 0 .2-.1.6-.2 1.3-.2.8-.3 1.4-.3 1.6 0 .2 0 .4.1.5.1.1.2.2.3.2.1 0 .3-.1.5-.3s.5-.5.8-.9c.1-.1.2-.2.3-.2.1 0 .2 0 .2.1.1.1.1.2.1.4 0 .3-.1.5-.2.7-.7.9-1.4 1.3-2 1.3-.6 0-.9-.1-1.1-.5zm.4-5.6c-.2-.1-.2-.3-.2-.6s.1-.5.3-.6c.2-.2.5-.3.8-.3.3 0 .5.1.7.2.2.1.3.3.3.6s-.1.5-.3.7c-.2.2-.4.3-.8.3-.4-.1-.7-.2-.8-.3z"/><path class="st1" d="M102.8 45.4c-.4-.4-.6-.9-.6-1.6 0-.6.1-1.1.4-1.6.2-.4.5-.8.9-1 .4-.2.8-.4 1.2-.4.4 0 .7.1.9.4.2.2.3.5.3.9 0 .3-.1.6-.2.8s-.3.3-.5.3c-.1 0-.3 0-.3-.1s-.1-.2-.1-.3v-.3c0-.1.1-.2.1-.3s0-.2-.1-.2c0-.1-.1-.1-.2-.1-.2 0-.3.1-.5.2-.1.2-.3.4-.4.6s-.1.5-.1.8c0 .9.4 1.3 1.1 1.3.3 0 .6-.1 1-.3.3-.2.7-.5 1-.9.1-.1.2-.2.3-.2.1 0 .2 0 .2.1.1.1.1.2.1.4 0 .3-.1.5-.2.7-.3.4-.8.8-1.2 1-.5.2-.9.3-1.4.3-.7.1-1.3-.1-1.7-.5zm11.8-2.7c.1.1.1.2.1.4 0 .4-.1.6-.3.6-.4.2-.9.2-1.5.3-.1.6-.4 1.1-.8 1.5-.4.4-.9.6-1.4.6-.4 0-.8-.1-1.1-.3-.3-.2-.5-.5-.7-.8-.2-.4-.2-.7-.2-1.1 0-.6.1-1.1.3-1.5s.5-.8.9-1c.4-.2.8-.4 1.2-.4.6 0 1 .2 1.3.6.3.4.5.9.6 1.4.3 0 .8-.1 1.2-.2h.2c.1-.2.2-.2.2-.1zm-3.2 1.9c.2-.2.3-.5.3-.8-.2-.2-.4-.4-.5-.6-.1-.3-.2-.5-.2-.8V42c-.3 0-.5.1-.7.4-.2.3-.3.7-.3 1.2 0 .4.1.7.2.9.2.2.3.3.6.3.2.1.4 0 .6-.2z"/><path class="st1" d="M118.2 43.3c0 .6-.5.9-1.4.9-.2 0-.4 0-.8-.1.1.5.2 1 .2 1.5s.1 1 .1 1.4c0 .8-.1 1.4-.4 1.8s-.6.6-1 .6c-.5 0-.9-.4-1.1-1.1-.2-.7-.3-1.9-.3-3.4 0-1.4.2-2.8.5-4.3.3-1.4.7-2.6 1.3-3.6.5-1 1.1-1.4 1.8-1.4.3 0 .6.2.8.5.2.3.3.7.3 1.2 0 1.7-1 3.6-3.1 5.6-.1.7-.1 1.4-.1 1.9 0 .8 0 1.5.1 2.3.1.8.1 1.2.3 1.2.2 0 .3-.4.3-1.1 0-.6 0-1.1-.1-1.7-.1-.5-.2-1.1-.3-1.7 0-.1 0-.2.1-.4.1-.1.2-.3.3-.4.1-.1.2-.2.3-.2h.7c.3 0 .6 0 1-.1h.4c0 .2.1.3.1.6zm-1.9-5.9c-.2.4-.4 1-.6 1.8s-.4 1.5-.5 2.3c.6-.7 1-1.4 1.4-2.1s.5-1.4.5-2c0-.4-.1-.7-.3-.7-.2 0-.3.2-.5.7zm9.5 6.3c.1.1.1.2.1.3 0 .2 0 .3-.1.4-.1.1-.1.2-.2.3-.6.4-1.1.7-1.4.9l-.7.5c-.3 1.5-.6 2.7-1.1 3.6-.5.9-1 1.3-1.7 1.3-.4 0-.7-.1-.9-.3-.2-.2-.4-.5-.4-.9 0-.5.2-1.1.6-1.7.4-.6 1.2-1.3 2.3-2.2l.1-.4c-.1.2-.3.4-.5.5-.2.1-.4.2-.6.2-.5 0-.8-.2-1.1-.5s-.4-.8-.4-1.3c0-.6.1-1.1.4-1.7s.6-.9 1.1-1.3c.5-.3.9-.5 1.4-.5.2 0 .3 0 .3.1.1.1.1.2.1.3h.5c.2 0 .3 0 .4.1.1.1.1.2.1.3v.2c0 .2-.1.8-.3 1.7 0 .2-.1.4-.1.6s-.1.4-.1.7c.6-.4 1.1-.8 1.6-1.2.1-.1.2-.1.3-.1.2-.1.2 0 .3.1zm-4.4 5.5c.2-.4.5-1.1.7-2.1-.6.5-1 .9-1.2 1.3s-.4.7-.4 1c0 .1 0 .2.1.3 0 .1.1.1.2.1.1.1.4-.1.6-.6zm.8-4.6c.2-.2.3-.5.3-.9l.4-1.9c-.3 0-.6.1-.8.3s-.5.5-.6.9-.2.8-.2 1.2c0 .2 0 .4.1.5s.2.2.4.2c0 0 .2-.1.4-.3z"/><path class="st1" d="M125 45.6c-.1-.3-.2-.8-.2-1.4 0-1 .1-1.9.4-2.7.1-.2.2-.4.3-.5.2-.1.4-.1.6-.1.1 0 .2 0 .3.1.1 0 .1.1.1.2s-.1.4-.2.8c-.1.3-.1.6-.2.8s-.1.5-.1.8c.2-.6.5-1.1.8-1.5.3-.4.6-.7.9-.8.3-.2.6-.3.8-.3.5 0 .7.2.7.7 0 .1 0 .3-.1.7-.1.3-.1.5-.1.5 0 .3.1.4.3.4.2 0 .5-.2.8-.5.1-.1.2-.1.3-.1.1 0 .2 0 .2.1.1.1.1.2.1.3 0 .3-.1.5-.2.6-.2.2-.4.4-.7.5-.3.2-.6.2-.9.2-.4 0-.7-.1-.9-.3s-.3-.5-.3-.8v-.6c0-.1 0-.2-.1-.2s-.3.1-.4.4-.4.6-.5 1c-.2.4-.3.8-.4 1.3-.1.3-.2.6-.3.7s-.3.2-.5.2c-.2-.1-.4-.2-.5-.5z"/><path class="st1" d="M135.4 42.7c.1.1.1.2.1.4 0 .4-.1.6-.3.6-.4.2-.9.2-1.5.3-.1.6-.4 1.1-.8 1.5-.4.4-.9.6-1.4.6-.4 0-.8-.1-1.1-.3-.3-.2-.5-.5-.7-.8-.2-.4-.2-.7-.2-1.1 0-.6.1-1.1.3-1.5s.5-.8.9-1c.4-.2.8-.4 1.2-.4.6 0 1 .2 1.3.6.3.4.5.9.6 1.4.3 0 .8-.1 1.2-.2h.2c0-.2.1-.2.2-.1zm-3.3 1.9c.2-.2.3-.5.3-.8-.2-.2-.4-.4-.5-.6-.1-.3-.2-.5-.2-.8V42h-.1c-.3 0-.5.1-.7.4-.2.3-.3.7-.3 1.2 0 .4.1.7.2.9.2.2.3.3.6.3.4.1.6 0 .7-.2z"/><path class="st1" d="M142.6 42.6c.1 0 .2 0 .3.1.1.1.1.2.1.3 0 .2 0 .4-.1.5-.1.1-.2.2-.4.3-.3.1-.7.2-1.1.2-.3 0-.6 0-.9-.1-.2.3-.4.7-.7 1.1-.3.4-.5.7-.8.9-.2.2-.4.2-.7.2-.3 0-.5-.1-.7-.3-.2-.2-.2-.6-.3-1.1l-.1-.8c-.2.6-.4 1.1-.6 1.4-.2.3-.4.5-.5.7s-.4.2-.6.2c-.3 0-.5-.1-.7-.4-.2-.2-.3-.6-.3-1.1-.1-1-.1-1.9-.1-2.7v-.4c0-.2.1-.4.2-.5.1-.1.3-.1.6-.1.2 0 .3 0 .4.1.1.1.1.2.1.4 0 .8.1 1.9.2 3.3.5-1 1-2.1 1.4-3.3.1-.2.2-.4.3-.4.1-.1.3-.1.4-.1.2 0 .3 0 .4.1s.1.2.1.4c0 .8.1 1.9.2 3.3.4-.7.8-1.2 1-1.6-.1-.2-.2-.5-.2-.8 0-.2.1-.5.2-.7.1-.2.3-.4.5-.6.2-.1.4-.2.6-.2.2 0 .4.1.5.2.1.2.2.4.2.7 0 .3-.1.7-.3 1.1.3 0 .6-.1 1.1-.2l.3-.1z"/><path class="st1" d="M143.7 46c-.2-.2-.3-.4-.3-.6 0-.2.1-.4.2-.5.1-.1.3-.2.6-.2h.6c0-.2 0-.4-.1-.5-.1-.2-.2-.3-.3-.5-.1-.2-.2-.3-.3-.4-.2.4-.5.8-.7 1.1-.2.3-.5.6-.7.8-.1.1-.3.2-.4.2-.1 0-.2 0-.3-.1s-.1-.2-.1-.3c0-.1.1-.3.2-.4l.1-.2c.4-.5.7-.9.9-1.2.1-.2.3-.5.4-.9.2-.4.3-.7.5-1.1.1-.3.4-.5.9-.5.2 0 .3 0 .4.1.1 0 .1.1.1.2v.2c0 .1-.1.2-.1.3-.1.3-.2.5-.2.7 0 .1 0 .2.1.4.1.1.2.3.4.5.2.3.4.6.5.8.1.2.2.5.2.7v.3c.4-.1.8-.5 1.3-1.1.1-.1.2-.2.3-.2.1 0 .2 0 .2.1.1.1.1.2.1.4 0 .3-.1.5-.2.7-.4.5-.7.8-1.1.9-.3.2-.7.3-1.2.3-.3.2-.6.4-1 .4-.5-.1-.8-.2-1-.4z"/></g></svg>