<svg id="Слой_1" xmlns="http://www.w3.org/2000/svg" viewBox="0 0 177.4 150.4"><style>.st0{fill:#00c9b3}.st1{opacity:.2;fill:url(#Shadow_1_)}.st2{fill:#fff}</style><g id="Laptop_1_"><path class="st0" d="M147.9 75.2c0 9.3-2.2 18.2-6 26-6.2 12.6-16.7 22.7-29.7 28.4-7.2 3.1-15.2 4.9-23.6 4.9-32.7 0-59.3-26.5-59.3-59.3C29.4 42.5 56 16 88.7 16s59.2 26.5 59.2 59.2z"/><linearGradient id="Shadow_1_" gradientUnits="userSpaceOnUse" x1="133.719" y1="114.218" x2="69.236" y2="69.066"><stop offset=".3" stop-color="#fff"/><stop offset="1"/></linearGradient><path id="Shadow" class="st1" d="M103.1 62.4c0-.1-.1-.1 0 0l-.1-.1c-.1-.1-.3-.2-.4-.2H74.5c-.4 0-.7.4-.7.8v19c0 .3.1.5.4.7l2.1 2.1h-7.6c-.1 0-.1 0-.2.1 0 0-.1.1 0 .2 0 0 .2 1 1.1 1.9l42.8 42.8c12.9-5.6 23.5-15.7 29.7-28.4l-39-38.9zm-2.4 17.5H76.3v-15h24.4v15z"/><path class="st2" d="M108.9 84.8s-.1-.1-.2-.1H68.6c-.1 0-.1 0-.2.1 0 0-.1.1 0 .1 0 0 .6 3.4 5.3 3.4h30c4.7 0 5.3-3.4 5.3-3.4s0-.1-.1-.1zm-17.2 2.3h-6v-1.3h6v1.3zm-17.2-4.4h28.1c.4 0 .7-.4.7-.8v-19c0-.4-.3-.8-.7-.8H74.5c-.4 0-.7.4-.7.8v19c-.1.5.3.8.7.8zm1.8-17.8h24.4v15H76.3v-15zm0 0" id="Laptop"/></g></svg>