<svg id="Слой_1" xmlns="http://www.w3.org/2000/svg" viewBox="0 0 177.4 150.4"><style>.st0{fill:#00c9b3}.st1{opacity:.2;fill:url(#Shadow_2_)}.st2{stroke:#fff;stroke-width:1.5;stroke-miterlimit:10}.st2,.st3{fill:#fff}.st4{fill:#3ec9b3}</style><g id="Libra_1_"><path class="st0" d="M147.9 75.2c0 8.6-1.9 16.8-5.2 24.2-6.2 13.9-17.7 24.9-31.8 30.7-6.9 2.8-14.4 4.3-22.3 4.3-32.7 0-59.3-26.5-59.3-59.3C29.4 42.5 56 16 88.7 16s59.2 26.5 59.2 59.2z"/><linearGradient id="Shadow_2_" gradientUnits="userSpaceOnUse" x1="134.013" y1="113.796" x2="68.537" y2="67.95"><stop offset=".3" stop-color="#fff"/><stop offset="1"/></linearGradient><path id="Shadow_1_" class="st1" d="M102.9 59.5H92.5c-.5-1.6-2-2.8-3.8-2.8-1.8 0-3.3 1.2-3.8 2.8H74.4V62l12.3 12.3v.5c-3.7-3.7-7.3-7.4-11-11.1 0 .1 0 .1-.1.2-.1.2-.3.2-.4.3-.2.1-.2.5-.4.7 0 .1-.7 1.2-.7 1.3-.1.2-.9 1.7-1 1.9-.2.4-5.7 10.7-6.9 13 0 .6.2 1.1.6 1.6 0 0 .2.1.2.2 0 .2-.1.4-.3.4 2.7 2.5 5.4 5.1 8.1 7.6h-.9v2.5h.3l36.5 36.5c14.1-5.7 25.6-16.8 31.8-30.7-13-13-26.3-26.4-39.6-39.7zM67.8 81.2c1-1.8 6.9-12.9 6.9-13 .1-.2.4-.7.4-.7.2-.4.4-.4.6 0 .1.3.3.6.4.8.1.1 5.6 10.5 6.9 12.9H67.8zm25 0v-.1l-2.4-2.4c.1-.2.1-.3.2-.5l2.5 2.5c-.1.2-.2.4-.3.5z"/><g id="Libra"><path class="st2" d="M84.5 81.2c0 2.3-4.1 4.3-9.1 4.3s-9.1-1.9-9.1-4.3c1.2-2.3 6.7-12.6 6.9-13 .1-.2.9-1.7 1-1.9 0-.1.7-1.2.7-1.3 0-.1.3-.5.4-.7l.1-.1s.1 0 .1.1c.1.2.3.6.4.7l.3.6s.4.8.5.9c0 0 7.6 14.3 7.8 14.7zm-1.5 0c-1.3-2.4-6.8-12.8-6.9-12.9-.1-.2-.3-.5-.4-.8-.2-.4-.4-.4-.6 0 0 0-.3.6-.4.7 0 .1-5.9 11.2-6.9 13H83zm28 0c0 2.3-4.1 4.3-9.1 4.3s-9.1-1.9-9.1-4.3c1.2-2.3 6.7-12.6 6.9-13 .1-.2.9-1.7 1-1.9 0-.1.7-1.2.7-1.3 0-.1.3-.5.4-.7l.1-.1s.1 0 .1.1c.1.2.3.6.4.7l.3.6s.4.8.5.9c0 0 7.6 14.3 7.8 14.7zm-1.5 0c-1.3-2.4-6.8-12.8-6.9-12.9-.1-.2-.3-.5-.4-.8-.2-.4-.4-.4-.6 0 0 0-.3.6-.4.7 0 .1-5.9 11.2-6.9 13h15.2z"/><path class="st3" d="M90.6 62.1v29.1h12.6v2.5h-29v-2.5h12.6V62.1H74.4v-2.5h28.4v2.5H90.6z"/><circle class="st3" cx="88.7" cy="60.7" r="4"/><circle class="st4" cx="88.7" cy="60.7" r="1.6"/></g></g></svg>