<svg id="Слой_1" xmlns="http://www.w3.org/2000/svg" viewBox="0 0 177.4 150.4"><style>.st0{fill:#00c9b3}.st1{opacity:.2;fill:url(#Тень_1_)}.st2{fill:#fff}.st3{fill:none;stroke:#fff;stroke-width:4;stroke-miterlimit:10}</style><g id="Иконка_3"><path id="Фон_3_" class="st0" d="M147.9 75.2c0 8.8-1.9 17.1-5.3 24.6-6.4 14-18 25-32.4 30.7-6.7 2.6-13.9 4-21.5 4-32.7 0-59.3-26.5-59.3-59.3 0-32.7 26.5-59.3 59.3-59.3 32.7 0 59.2 26.6 59.2 59.3z"/><linearGradient id="Тень_1_" gradientUnits="userSpaceOnUse" x1="133.6" y1="114.392" x2="63.969" y2="65.636"><stop offset=".3" stop-color="#fff"/><stop offset="1"/></linearGradient><path id="Тень" class="st1" d="M142.6 99.8c-6.4 14-18 25-32.4 30.7L68.6 88.8c.4-10.5.8-21 1.3-31.4 4.4 4 8.8 7.9 13.2 11.9v-5.5h5.7l5.3 5.3h2.7l.2.2 1.9-1.9v-5.8h5.7v.1l38 38.1z"/><g id="Иконка"><path class="st2" d="M74.9 74.1c0-.5.5-1 1-1h3.7c.5 0 1 .5 1 1v8.7c0 .5-.5 1-1 1h-3.7c-.5 0-1-.5-1-1v-8.7zm8-10.7c0-.5.5-1 1-1h3.7c.6 0 1 .5 1 1v19.4c0 .6-.4 1-1 1h-3.7c-.5 0-1-.4-1-1V63.4zm8 5.3c0-.5.5-1 1-1h3.7c.6 0 1 .5 1 1v14c0 .5-.4 1-1 1h-3.7c-.5 0-1-.5-1-1v-14zm7.8-7.5c0-.5.5-1 1-1h3.7c.5 0 1 .5 1 1v21.5c0 .6-.5 1-1 1h-3.7c-.5 0-1-.4-1-1V61.2z"/><path class="st3" d="M68.5 57.3v29.1c0 .5.5 1 1 1h40.1"/></g></g></svg>