<svg id="Слой_1" xmlns="http://www.w3.org/2000/svg" viewBox="0 0 177.4 150.4"><style>.st0{fill:#00c9b3}.st1{opacity:.2;fill:url(#SVGID_1_)}.st2,.st3{fill:#fff}.st3{stroke:#fff;stroke-width:2;stroke-miterlimit:10}</style><path class="st0" d="M147.9 75.2c0 8.1-1.6 15.9-4.6 22.9-.2.6-.5 1.1-.7 1.6-6.2 13.6-17.3 24.4-31.1 30.1-.4.2-.9.4-1.3.5-6.7 2.6-13.9 4-21.5 4-32.7 0-59.3-26.5-59.3-59.3 0-32.7 26.5-59.3 59.3-59.3 32.7.2 59.2 26.8 59.2 59.5z"/><linearGradient id="SVGID_1_" gradientUnits="userSpaceOnUse" x1="134.522" y1="113.076" x2="65.458" y2="64.717"><stop offset=".3" stop-color="#fff"/><stop offset="1"/></linearGradient><path class="st1" d="M103.9 58.7l-.5.5c-2.6-2.5-5.8-4.2-9.2-5.2l-.3-.3-.1.3c-1.5-.4-3.1-.6-4.6-.6l-.4-.4-.4.4c-1.8 0-3.5.3-5.3.7l-.5-.5-.8.8h-.1C75 56.6 70 61.9 67.9 68.2l-.6.6.3.3c-.5 1.8-.8 3.6-.8 5.5l-3.8-4c-.4-.5-1.2-.5-1.7 0-.5.4-.5 1.2 0 1.7l5.8 6.1.1.1-.5.5 8.9 8.9-.9.9c-.9-.9-1.8-2-2.5-3.1-.3-.5-1.1-.7-1.6-.3-.5.4-.7 1.1-.3 1.6.8 1.3 1.8 2.5 2.9 3.5l-.6.5 38.9 38.9c13.8-5.8 24.9-16.6 31.1-30.1.2-.5.5-1.1.7-1.6l-39.4-39.5zM69.1 75v-.5l.2.2-.2.3zm.2-2.7c.1-.4.1-.7.2-1.1l.5.5-.7.6zm16-16L85 56c.3 0 .5-.1.8-.1l-.5.4zm6.5-.3c0-.1 0-.1 0 0zm9.6 5.2l-2.7-2.7c1.1.7 2.1 1.4 3.1 2.3l-.4.4z"/><path class="st2" d="M92.7 87v-3.2c.5-.1.9-.2 1.3-.4 1-.4 1.8-1 2.4-1.8.6-.8.9-1.7.9-2.6 0-.8-.2-1.5-.6-2.2-.4-.6-.9-1.1-1.5-1.5-.4-.3-1.1-.5-1.9-.7.8-.3 1.4-.6 1.9-1s.8-.9 1.1-1.4c.3-.5.4-1.1.4-1.7 0-.8-.2-1.6-.7-2.2-.5-.7-1.2-1.2-2-1.6-.3-.1-.7-.2-1.2-.3v-3.1h-3v2.9h-1.9v-2.9h-3v2.9h-4.6v2.5h.7c.5 0 .8 0 1 .1.2.1.3.2.3.3.1.1.1.5.1 1V80c0 .5 0 .8-.1 1-.1.1-.2.3-.3.3-.2.1-.5.1-1 .1h-.7v2.5h4.6V87h3v-2.9h1.9V87h2.9z"/><path class="st0" d="M86.6 69.2h2c1.1 0 1.9.1 2.4.2.4.1.8.4 1 .7.2.3.3.7.3 1.2s-.1.8-.4 1.2c-.2.3-.6.6-1.1.8-.5.2-1.2.3-2.3.3h-2v-4.4zM89 81.3h-1.3c-.4 0-.7 0-.8-.1-.1 0-.2-.1-.2-.2s-.1-.4-.1-1v-3.8h2.3c1 0 1.8.1 2.3.3.5.2.9.5 1.1.8.2.4.4.8.4 1.3 0 .6-.2 1.2-.5 1.6-.3.4-.8.7-1.3.9-.6.1-1.2.2-1.9.2z"/><path class="st3" d="M74.9 72.8l-6.1 5.8c-.2.2-.5.4-.8.4-.3 0-.6-.1-.8-.4l-5.8-6.1c-.4-.5-.4-1.2 0-1.7.5-.4 1.2-.4 1.7 0l3.8 4c.1-9.2 6-17.4 14.9-20.3 9.4-3.1 19.8.5 25.2 8.8.3.5.2 1.3-.3 1.6-.5.4-1.3.2-1.6-.3-4.8-7.5-14.1-10.7-22.5-7.9-7.9 2.7-13.2 10-13.3 18.3l4.1-3.9c.5-.4 1.2-.4 1.6 0 .4.5.4 1.3-.1 1.7zm41.1 6.6c-.5.5-1.2.5-1.6 0l-4-3.9c-.1 9.2-6 17.5-14.9 20.4-2.3.8-4.6 1.1-6.9 1.1-7.2 0-14.2-3.6-18.3-10-.3-.5-.2-1.3.3-1.6.5-.3 1.3-.2 1.6.3 4.8 7.5 14.1 10.7 22.5 7.9 7.9-2.7 13.2-10 13.3-18.3l-4 4c-.2.2-.5.3-.8.3-.3 0-.6-.1-.8-.3-.5-.5-.5-1.2 0-1.7l5.9-6c.4-.5 1.2-.5 1.6 0l6 5.9c.6.7.6 1.4.1 1.9z"/></svg>