<svg id="Слой_1" xmlns="http://www.w3.org/2000/svg" viewBox="0 0 177.4 150.4"><style>.st0{fill:#00c9b3}.st1{opacity:.2;fill:url(#Тень_1_)}.st2{fill:none;stroke:#fff;stroke-width:5;stroke-miterlimit:10}.st3{fill:#fff}</style><g id="Иконка_1"><path id="Фон_5_" class="st0" d="M147.9 73.9c0 7.7-1.5 15.1-4.2 21.8-5.9 15-17.8 27-32.7 33.1-6.9 2.8-14.5 4.4-22.4 4.4-32.7 0-59.3-26.5-59.3-59.3 0-32.7 26.5-59.3 59.3-59.3s59.3 26.5 59.3 59.3z"/><linearGradient id="Тень_1_" gradientUnits="userSpaceOnUse" x1="134.53" y1="111.715" x2="65.361" y2="63.282"><stop offset=".3" stop-color="#fff"/><stop offset="1"/></linearGradient><path id="Тень_2_" class="st1" d="M143.8 95.7c-5.9 15-17.8 27-32.7 33.1L68.7 86.4c.6-10.1 1.1-20.1 1.7-30.2 1.9 2.2 3.7 4.3 5.6 6.5l5.7 6.6c.5-.4 1.1-.9 1.6-1.4.5-.4.9-.8 1.3-1.2 1.8 1.7 3.6 3.3 5.4 5l9.5-9.5c-.9-1-1.8-2.1-2.7-3.1 3.3 0 6.6 0 9.8-.1h.2c12.5 12.2 24.7 24.4 37 36.7z"/><g id="Иконка_2_"><path class="st2" d="M68.7 56.2v29.2c0 .6.4 1 1 1h40.1"/><path class="st3" d="M84.2 75.4c.4-.4 1-.4 1.4 0l3.8 3.8c.4.4 1 .4 1.4 0L103 67c.4-.4 1-.4 1.4 0l2.1 2.1c.4.4.7.3.7-.3v-9.1c0-.5-.4-1-1-1h-9c-.6 0-.7.3-.3.7l2 2c.4.4.4 1 0 1.4L90.8 71c-.4.4-1 .4-1.4 0l-4-4c-.4-.4-1-.4-1.4 0L72.5 78.3c-.4.4-.4 1 0 1.4l3 3c.4.4 1 .4 1.4 0l7.3-7.3z"/></g></g></svg>