<svg id="Слой_1" xmlns="http://www.w3.org/2000/svg" viewBox="0 0 177.4 150.4"><style>.st0{fill:#00c9b3}.st1{opacity:.2;fill:url(#Тень_2_)}.st2{fill:none;stroke:#fff;stroke-width:5;stroke-miterlimit:10}.st3{fill:#fff}</style><g id="Иконка_2"><path id="Фон_4_" class="st0" d="M147.9 75.2c0 8.7-1.9 16.9-5.2 24.4-5.8 12.8-16.1 23.2-28.8 29.2-7.7 3.6-16.2 5.6-25.2 5.6-32.7 0-59.3-26.5-59.3-59.3C29.4 42.5 56 16 88.7 16c32.7 0 59.2 26.5 59.2 59.2z"/><linearGradient id="Тень_2_" gradientUnits="userSpaceOnUse" x1="134.322" y1="113.357" x2="70.245" y2="68.489"><stop offset=".3" stop-color="#fff"/><stop offset="1"/></linearGradient><path id="Тень_1_" class="st1" d="M142.7 99.6c-5.8 12.8-16.1 23.3-28.8 29.2-15.5-15.5-31-31-46.5-46.6.2-.3.9-1.3.5-1.8v-.1c-.9-1-1.5-2.2-1.7-3.6-.4-3.6 2.7-5.9 2.9-6.1 1.3-1 2.6-1.2 3.6-1.3.7-.1 1.6-.3 2.5-.2-.2-.1-.4-.1-.5-.3-.8-.9-.1-3.3 1.1-4.9 2.3-2.9 6.4-3.2 7.9-3.3.6 0 1-.1 1.7 0 1.2.1 4.4 3.3 6.8 3.2.4 0 1-.2 1.7-.7 3 3.2 5.9 6.4 8.9 9.6 0-.1-.1-.3-.1-.5 0-.4.2-.9.5-1.2.7-.7 1.8-.7 2.4 0l.1.1 4.3 4.3c-.3-2.7-1.5-5.2-3.4-7.1-.7-.7-.7-1.8 0-2.4.7-.7 1.8-.7 2.4 0 .2.2.3.4.5.5l33.2 33.2z"/><g id="Иконка_1_"><path class="st2" d="M94.4 75c-.1 0 .8-1.9.9-4.2.1-2.1-.8-3.7-1.3-4.6-1.7-3.1-5.1-5.3-8.6-5.5h-1.7c-1.5.1-5.6.4-7.9 3.3-1.3 1.6-2 4.1-1.1 4.9.5.5 1.3.2 2.5 1 .8.5 1.3 1.2 1.3 1.2s-.5-.8-1.3-1.3c-1.5-1-3.3-.7-4.5-.5-1 .2-2.3.4-3.6 1.3-.3.2-3.4 2.6-2.9 6.1.3 2.7 2.5 5 5.4 5.7h24.9c.5-.1 2.5-.8 3.6-2.9 1.1-2.3.5-5.1-1.3-6.8-1.3-1.2-2.9-1.5-3.5-1.5 0 .5-.1 1.1-.2 1.7-.2 1.2-.6 2.1-.7 2.1zm2.1-4.2"/><path class="st3" d="M103.2 71c-.3.3-.5.8-.5 1.2 0 .4.2.9.5 1.2 2.2 2.2 2.2 5.8 0 8-.7.7-.7 1.8 0 2.4.7.7 1.8.7 2.4 0 3.5-3.5 3.5-9.3 0-12.8-.7-.6-1.7-.6-2.4 0z"/><path class="st3" d="M106.6 85.3c-.3.3-.5.8-.5 1.2 0 .4.2.9.5 1.2.7.7 1.8.7 2.4 0 2.9-2.9 4.5-6.8 4.5-10.9 0-4.1-1.6-8-4.5-10.9-.7-.7-1.8-.7-2.4 0-.7.7-.7 1.8 0 2.4 2.3 2.3 3.5 5.3 3.5 8.5s-1.2 6.2-3.5 8.5z"/></g></g></svg>