<svg id="Слой_1" xmlns="http://www.w3.org/2000/svg" viewBox="0 0 177.4 150.4"><style>.st0{fill:#00c9b3}.st1{opacity:.2;fill:url(#Shadow_1_)}.st2,.st3{fill:none;stroke:#fff;stroke-width:4;stroke-miterlimit:10}.st3{stroke-width:3}</style><g id="Scale_1_"><path class="st0" d="M147.9 78.2c0 6.8-1.1 13.4-3.3 19.5-5.8 16.7-18.9 30.1-35.5 36.2-6.4 2.4-13.3 3.6-20.5 3.6-32.7 0-59.3-26.5-59.3-59.3C29.4 45.5 56 19 88.7 19s59.2 26.5 59.2 59.2z"/><linearGradient id="Shadow_1_" gradientUnits="userSpaceOnUse" x1="134.514" y1="116.087" x2="60.764" y2="64.446"><stop offset=".3" stop-color="#fff"/><stop offset="1"/></linearGradient><path id="Shadow_2_" class="st1" d="M144.7 97.7c-5.8 16.7-18.9 30.1-35.5 36.2C94 119 78.7 104.2 63.5 89.3c.3-.3.7-.6 1-1 .3-2.4.6-4.9 1-7.3 1 1 2 2.1 3 3.1.2-.1.3-.1.5-.2 0-4-.1-8.1-.1-12.1-1.8-1.8-3.6-3.5-5.4-5.3h1v-7.4c2.5-.3 4.9-.7 7.4-1 1.7 1.7 3.3 3.4 5 5.2h18.3l.1.1c0-.1 0-.2.1-.3-1.1-1-2.1-2-3.2-3 2.2-.5 4.4-.9 6.6-1.4l1.8-.6c2.6 2.9 5.2 5.9 7.8 8.8 1.4.1 2.8.2 4.1.3.4-.3.9-.7 1.3-1 10.3 10.4 20.6 20.9 30.9 31.5z"/><g id="Scale"><path class="st2" d="M68.9 63.2h26.2v20.9H68.9z"/><path class="st3" d="M64.5 81v7.3h7.4m20.3 0h7.3V81m0-14.6V59h-7.3m-20.3 0h-7.4v7.4"/><path class="st2" d="M82 84.8V93h26.5V71.5H96.4"/><path class="st3" d="M77.7 90v7.4h7.4m20.4 0h7.4V90m0-15.5v-7.4h-7.4"/></g></g></svg>